<?xml version="1.0" encoding="utf-8"?>
<!-- Generator: Adobe Illustrator 22.1.0, SVG Export Plug-In . SVG Version: 6.00 Build 0)  -->
<svg version="1.1" xmlns="http://www.w3.org/2000/svg" xmlns:xlink="http://www.w3.org/1999/xlink" x="0px" y="0px"
	 viewBox="0 0 504 360" style="enable-background:new 0 0 504 360;" xml:space="preserve">
<style type="text/css">
	.st0{opacity:0.502;enable-background:new    ;}
	.st1{fill-rule:evenodd;clip-rule:evenodd;fill:#8E8E8E;}
</style>
<g id="Shape_1_1_" class="st0">
	<g id="Shape_1">
		<g>
			<path class="st1" d="M504,342.4c-1.1,0-2.2,0-3.3,0c-16-0.3-34.7-2-56.2-5.1c-30.6-4.3-60.9-10.9-90.2-16.9
				c-29.5-6.1-57.9-11.7-87.7-16.4c-54.7-8.5-107.5-15.4-153.1-26C72.6,269,35,256.1,0,242.4V360h504V342.4z"/>
		</g>
	</g>
</g>
<g id="Shape_3_1_" class="st0">
	<g id="Shape_3">
		<g>
			<path class="st1" d="M443.5,0c9.5,3.5,18.7,7.3,28,10.9c10.6,4,21.5,6.9,32.5,9V0H443.5z M0,190.4c3.1,0,6.1,0,9.3-0.1
				c45.5-1,97.5-15.5,138.7-41.9c49.4-31.5,66.2-55.7,84-79c17.5-23.1,36-45.3,81.6-66.7c2.1-1,4.2-1.9,6.2-2.8H0V190.4z"/>
		</g>
	</g>
</g>
<g id="Shape_2_1_" class="st0">
	<g id="Shape_2">
		<g>
			<path class="st1" d="M504,86c-8.1,5.7-16.6,12.5-25.3,20.6c-19.9,18.3-36.5,40.9-53.5,62.4c-17,21.6-34.4,42.3-55.5,59.4
				c-39,31.4-84.1,48.9-123.8,62.2c-40.9,13.5-80,19.8-115.4,31.6c-26.3,8.6-50.6,20.3-69.6,37.8H504V86z"/>
		</g>
	</g>
</g>
</svg>
